<svg xmlns="http://www.w3.org/2000/svg" width="1254" height="1254" viewBox="0 0 1254 1254" role="img" aria-labelledby="title description">
  <title id="title">NoPoizen</title>
  <desc id="description">Flat-color project logo. Editable vector emblem with outlined lettering.</desc>

  <rect id="background" width="1254" height="1254" fill="#F5F2E9"/>
  <g id="poison-vial">
    <path id="stopper" fill="#82A645" stroke="#222B30" stroke-width="29" stroke-linejoin="round" d="M550 260 H704 L690 343 H563 Z"/>
    <path id="bottle" fill="#82A645" d="M554 355 H700 C681 398 689 439 723 465 C784 510 827 550 827 629 C827 722 761 797 688 797 H566 C490 797 428 727 428 635 C428 554 469 514 526 470 C569 439 570 399 554 355 Z"/>
    <path id="bottle-neck" fill="#F5F2E9" d="M554 355 H700 C683 391 686 421 697 447 H558 C573 416 572 391 554 355 Z"/>
    <path id="bottle-outline" fill="none" stroke="#222B30" stroke-width="33" stroke-linejoin="round" d="M554 355 H700 C681 398 689 439 723 465 C784 510 827 550 827 629 C827 722 761 797 688 797 H566 C490 797 428 727 428 635 C428 554 469 514 526 470 C569 439 570 399 554 355 Z"/>
    <rect id="bottle-rim" x="506" y="322" width="242" height="55" rx="26" fill="#222B30"/>
    <path id="skull" fill="#F5F2E9" d="M626 518 C684 518 728 554 729 609 C730 644 712 669 682 683 V720 Q682 728 674 728 H657 V702 H642 V728 H614 V702 H598 V728 H580 Q571 728 571 720 V683 C541 670 523 645 523 612 C523 557 567 518 626 518 Z"/>
    <path id="left-eye" fill="#222B30" d="M558 606 C568 596 590 613 603 623 C616 633 605 654 587 657 C566 660 551 646 552 626 Q552 612 558 606 Z"/>
    <path id="right-eye" fill="#222B30" d="M694 606 C684 596 662 613 649 623 C636 633 647 654 665 657 C686 660 701 646 700 626 Q700 612 694 606 Z"/>
  </g>
  <g id="wordmark" aria-label="NoPoizen" fill="#222B30" stroke="#222B30" stroke-width="40" stroke-linejoin="round" paint-order="stroke" transform="translate(112.08340 1031.88959) scale(0.1060154 -0.1072555)"><path d="M169 1493H556L1045 469V1493H1373V0H986L498 1024V0H169ZM2176 891Q2069 891 2013.0 805.5Q1957 720 1957 559Q1957 398 2013.0 312.5Q2069 227 2176 227Q2282 227 2337.5 312.5Q2393 398 2393 559Q2393 720 2337.5 805.5Q2282 891 2176 891ZM2176 1147Q2437 1147 2583.0 991.0Q2729 835 2729 559Q2729 283 2583.0 127.0Q2437 -29 2176 -29Q1916 -29 1768.5 127.0Q1621 283 1621 559Q1621 835 1768.5 991.0Q1916 1147 2176 1147ZM2977 1493H3552Q3809 1493 3946.0 1366.5Q4083 1240 4083 1006Q4083 771 3946.0 644.5Q3809 518 3552 518H3324V0H2977ZM3324 1214V797H3515Q3616 797 3671.0 851.5Q3726 906 3726 1006Q3726 1106 3671.0 1160.0Q3616 1214 3515 1214ZM4792 891Q4685 891 4629.0 805.5Q4573 720 4573 559Q4573 398 4629.0 312.5Q4685 227 4792 227Q4898 227 4953.5 312.5Q5009 398 5009 559Q5009 720 4953.5 805.5Q4898 891 4792 891ZM4792 1147Q5053 1147 5199.0 991.0Q5345 835 5345 559Q5345 283 5199.0 127.0Q5053 -29 4792 -29Q4532 -29 4384.5 127.0Q4237 283 4237 559Q4237 835 4384.5 991.0Q4532 1147 4792 1147ZM5579 1120H5901V0H5579ZM5579 1556H5901V1264H5579ZM6160 1120H7040V870L6509 256H7040V0H6138V250L6669 864H6160ZM8288 563V461H7535Q7546 335 7616.5 272.0Q7687 209 7813 209Q7915 209 8021.5 242.5Q8128 276 8240 344V68Q8126 20 8011.5 -4.5Q7897 -29 7783 -29Q7509 -29 7357.5 125.5Q7206 280 7206 559Q7206 833 7355.0 990.0Q7504 1147 7765 1147Q8003 1147 8145.5 988.0Q8288 829 8288 563ZM7957 682Q7957 784 7903.5 846.5Q7850 909 7763 909Q7670 909 7611.5 850.5Q7553 792 7538 682ZM9545 682V0H9221V111V522Q9221 667 9215.0 722.0Q9209 777 9195 803Q9176 838 9143.5 857.5Q9111 877 9070 877Q8969 877 8911.5 790.5Q8854 704 8854 551V0H8532V1120H8854V956Q8927 1054 9009.0 1100.5Q9091 1147 9190 1147Q9364 1147 9454.5 1028.0Q9545 909 9545 682Z"/></g>
</svg>
